<svg xmlns="http://www.w3.org/2000/svg" xmlns:xlink="http://www.w3.org/1999/xlink" version="1.1" id="Layer_1" x="0px" y="0px" style="enable-background:new 0 0 2566.49 686.55;" xml:space="preserve" viewBox="85.22 99.07 2396.03 487.19">
<style type="text/css">
	.st0{fill:#FFFFFF;}
	.st1{fill:#00A1E4;}
	.st2{fill:#00A14B;}
	.st3{fill:#FFE600;}
</style>
<g>
	<path class="st0" d="M835.91,488.28c-6.03,11.51-13.77,20.97-23.23,28.37s-20.7,12.88-33.71,16.45   c-13.02,3.56-28.3,5.34-45.84,5.34c-10.69,0-21.45-1.24-32.27-3.7c-10.83-2.47-20.55-6.44-29.19-11.92   c-8.63-5.49-15.62-12.61-20.96-21.38c-5.34-8.77-5.79-12.77-5.79-12.77c-1.22-10.84,6.7-19.71,17.61-19.71h18.29   c10.91,0,20.15,4.56,20.52,10.14c0,0,0,0,2.19,3.84c2.19,3.84,5.14,6.99,8.84,9.46c3.7,2.47,7.87,4.25,12.54,5.34   c4.66,1.09,9.31,1.65,13.97,1.65c9.32,0,17.06-1.92,23.23-5.75c6.16-3.85,11.44-9.05,15.83-15.62c4.38-6.58,8.08-14.39,11.1-23.43   c3.02-9.04,3.25-9.8,3.25-9.8c3.19-10.43,5.61-19.16,5.39-19.38c-0.23-0.23-7.15,5.44-15.39,12.6c0,0-19.56,17-43.4,17   c-12.6,0-23.98-2.06-34.12-6.17c-10.14-4.11-18.7-10-25.69-17.68c-6.98-7.67-12.4-16.79-16.24-27.34   c-3.84-10.55-5.75-22.41-5.75-35.56c0-15.62,2.4-31.04,7.19-46.25c4.79-15.21,11.78-28.91,20.97-41.11   c9.18-12.19,20.41-22.06,33.71-29.6c13.29-7.54,28.43-11.3,45.43-11.3c14.8,0,27.81,2.88,39.05,8.63   c11.24,5.75,15.51,12.7,15.51,12.7c5.72,9.29,10.58,16.9,10.8,16.9s1.89-7.31,3.7-16.24c1.81-8.93,12.22-16.24,23.13-16.24h16.23   c10.91,0,18,8.74,15.76,19.41l-34.18,162.61c-2.24,10.68-6.51,28-9.47,38.51C844.9,466.26,841.93,476.77,835.91,488.28z    M749.17,291.77c-7.4,5.21-13.57,11.72-18.5,19.53c-4.93,7.81-8.7,16.45-11.3,25.9c-2.61,9.45-3.91,18.44-3.91,26.93   c0,6.3,0.75,12.27,2.26,17.88c1.5,5.62,3.9,10.63,7.2,15.01c3.29,4.38,7.4,7.81,12.33,10.28c4.93,2.47,10.82,3.7,17.68,3.7   c10.41,0,19.53-2.53,27.34-7.61c7.81-5.07,14.25-11.51,19.32-19.32c5.07-7.81,8.9-16.51,11.51-26.1c2.6-9.59,3.91-18.91,3.91-27.96   c0-13.43-3.43-24.46-10.28-33.1c-6.85-8.63-17.4-12.95-31.66-12.95C765.2,283.96,756.57,286.57,749.17,291.77z"/>
	<path class="st0" d="M921.83,276.77c6.3-8.9,13.98-16.1,23.02-21.58c9.04-5.48,19.18-9.38,30.42-11.72   c11.24-2.32,22.88-3.49,34.95-3.49c9.59,0,19.59,0.69,30.01,2.05c10.41,1.37,20,4.05,28.78,8.02c8.77,3.98,15.96,9.6,21.58,16.86   c5.62,7.26,8.28,16.92,8.02,28.98c0,10.14-1.07,16.23-1.07,16.23c-1.9,10.74-5.38,28.25-7.73,38.91l-10.34,46.77   c-2.36,10.65-5.12,23.23-6.13,27.94c0,0,0,0-0.41,5.61c-0.41,5.63-0.62,10.48-0.62,14.6c0,3.56,0,3.56,0,3.56   c1.13,4.82-6.87,8.77-17.78,8.77h-18.7c-10.91,0-19.84-4.72-19.84-10.48c0-5.77-9.66,0.68-14.16,2.79   c-2.98,1.4-3.51,2.42-15.02,6.67c-11.51,4.25-23.43,6.37-35.77,6.37c-11.51,0-21.58-1.51-30.22-4.52   c-8.63-3.01-15.83-7.05-21.58-12.13c-5.75-5.07-10.01-10.96-12.74-17.68c-2.74-6.71-4.11-13.78-4.11-21.18   c0-20.55,7.05-37,21.17-49.33c14.11-12.33,34.05-20,59.82-23.02c13.7-1.64,25.62-2.88,35.77-3.7c10.14-0.82,18.57-2.12,25.28-3.9   c6.71-1.78,11.71-4.38,15.01-7.81c3.29-3.43,4.93-8.56,4.93-15.42c0-5.48-1.24-9.87-3.7-13.16s-5.55-5.89-9.25-7.81   c-3.7-1.92-7.68-3.22-11.92-3.9c-4.25-0.68-8.29-1.03-12.13-1.03c-10.41,0-25.92,4.37-37.99,15c-2.34,2.06-14.1,16.24-25.02,16.24   h-15c-10.91,0-17.71-8.67-15.12-19.27C914.22,291.01,915.52,285.68,921.83,276.77z M1008.98,364.34   c-8.5,0.96-16.99,1.72-25.49,2.26c-5.49,0.55-10.83,1.44-16.04,2.67c-5.21,1.24-9.8,3.08-13.77,5.55   c-3.98,2.47-7.2,5.82-9.66,10.07c-2.47,4.26-3.7,9.66-3.7,16.24c0,7.95,3.22,13.91,9.66,17.88c6.44,3.98,13.91,5.96,22.41,5.96   c9.05,0,16.65-1.44,22.82-4.32c6.16-2.88,11.37-6.58,15.62-11.1c4.25-4.52,7.61-9.66,10.07-15.41c2.47-5.76,2.47-5.76,2.47-5.76   c2.03-6.33,4.99-16.13,6.58-21.79c1.58-5.65-3.53-4.35-12.47-3.22C1017.47,363.38,1017.47,363.38,1008.98,364.34z"/>
	<path class="st0" d="M1609.66,276.77c6.3-8.9,13.98-16.1,23.02-21.58c9.04-5.48,19.18-9.38,30.42-11.72   c11.24-2.32,22.88-3.49,34.95-3.49c9.59,0,19.59,0.69,30.01,2.05c10.41,1.37,20,4.05,28.78,8.02c8.77,3.98,15.96,9.6,21.58,16.86   c5.62,7.26,8.28,16.92,8.02,28.98c0,10.14-1.07,16.23-1.07,16.23c-1.9,10.74-5.38,28.25-7.73,38.91l-10.34,46.77   c-2.36,10.65-5.12,23.23-6.13,27.94c0,0,0,0-0.41,5.61c-0.41,5.63-0.62,10.48-0.62,14.6c0,3.56,0,3.56,0,3.56   c1.13,4.82-6.87,8.77-17.78,8.77h-18.7c-10.91,0-19.84-4.72-19.84-10.48c0-5.77-9.66,0.68-14.16,2.79   c-2.98,1.4-3.51,2.42-15.02,6.67s-23.43,6.37-35.77,6.37c-11.51,0-21.58-1.51-30.22-4.52c-8.63-3.01-15.83-7.05-21.58-12.13   c-5.75-5.07-10.01-10.96-12.74-17.68c-2.74-6.71-4.11-13.78-4.11-21.18c0-20.55,7.05-37,21.17-49.33   c14.11-12.33,34.05-20,59.82-23.02c13.7-1.64,25.62-2.88,35.77-3.7c10.14-0.82,18.57-2.12,25.28-3.9   c6.71-1.78,11.71-4.38,15.01-7.81c3.29-3.43,4.93-8.56,4.93-15.42c0-5.48-1.24-9.87-3.7-13.16c-2.47-3.29-5.55-5.89-9.25-7.81   c-3.7-1.92-7.68-3.22-11.92-3.9c-4.25-0.68-8.29-1.03-12.13-1.03c-10.41,0-25.92,4.37-37.99,15c-2.34,2.06-14.1,16.24-25.02,16.24   h-15c-10.91,0-17.71-8.67-15.12-19.27C1602.05,291.01,1603.35,285.68,1609.66,276.77z M1696.81,364.34   c-8.5,0.96-16.99,1.72-25.49,2.26c-5.49,0.55-10.83,1.44-16.04,2.67c-5.21,1.24-9.8,3.08-13.77,5.55   c-3.98,2.47-7.2,5.82-9.66,10.07c-2.47,4.26-3.7,9.66-3.7,16.24c0,7.95,3.22,13.91,9.66,17.88c6.44,3.98,13.91,5.96,22.41,5.96   c9.05,0,16.65-1.44,22.82-4.32c6.16-2.88,11.37-6.58,15.62-11.1c4.25-4.52,7.61-9.66,10.07-15.41c2.47-5.76,2.47-5.76,2.47-5.76   c2.03-6.33,4.99-16.13,6.58-21.79c1.58-5.65-3.53-4.35-12.47-3.22C1705.3,363.38,1705.3,363.38,1696.81,364.34z"/>
	<path class="st0" d="M1200.45,164.74c10.91,0,17.98,8.73,15.71,19.4l-54.23,254.72c-2.27,10.67-13.06,19.4-23.97,19.4h-18.29   c-10.91,0-17.99-8.73-15.73-19.41l53.87-254.71c2.26-10.67,13.03-19.41,23.94-19.41H1200.45z"/>
	<path class="st0" d="M1254.4,369.88c0,1.1,0,1.1,0,1.1c0,1.2-0.11,3.4,0,4.86c0.36,4.84,0.49,20.79,11.51,32.69   c7.37,7.96,19.46,11.51,35.36,11.51c5.75,0,10.89-0.88,15.42-2.67c4.52-1.78,8.49-4.04,11.92-6.79c3.42-2.73,6.44-5.89,9.04-9.45   c2.6-3.56,2.6-3.56,2.6-3.56c2.53-3.7,13.52-6.72,24.43-6.72h18.7c10.91,0,16.18,8.15,11.72,18.1c0,0-2.02,4.51-8.33,13.55   c-6.31,9.05-13.84,16.65-22.61,22.82c-8.77,6.17-18.98,10.76-30.63,13.77c-11.66,3.02-25.15,4.52-40.49,4.52   c-14.26,0-27.21-1.92-38.85-5.75c-11.65-3.84-21.58-9.66-29.81-17.47c-8.22-7.81-14.59-17.47-19.11-28.98   c-4.52-11.51-6.78-24.94-6.78-40.29c0-16.99,2.73-33.36,8.22-49.13c5.48-15.76,13.22-29.73,23.23-41.93   c10-12.19,22.26-21.92,36.8-29.19c14.52-7.26,30.83-10.89,48.92-10.89c14.8,0,28.29,1.92,40.49,5.75   c12.19,3.84,22.61,9.66,31.24,17.47c8.63,7.81,15.34,17.54,20.14,29.19c4.79,11.65,7.2,25.15,7.2,40.49   c0,10.42-0.47,13.66-0.47,13.66c-1.55,10.8-11.75,19.64-22.66,19.64h-116.95c-10.91,0-18.02,0.9-20.03,1.62   C1254.62,367.8,1254.4,368.79,1254.4,369.88z M1356.97,312.95c-0.96-5.35-2.81-10.21-5.55-14.59c-2.74-4.38-6.72-7.88-11.92-10.48   c-5.21-2.6-12.07-3.9-20.56-3.9c-8.22,0-15.49,1.23-21.79,3.7c-6.31,2.47-11.78,5.76-16.45,9.87c-4.66,4.11-8.57,8.91-11.71,14.39   c-3.15,5.48-3.15,5.48-3.15,5.48c-2.68,6.48,4.06,11.78,14.97,11.78h57.76c10.91,0,19.62-4.9,19.36-10.89   C1357.93,318.29,1357.93,318.29,1356.97,312.95z"/>
	<path class="st0" d="M2171.26,369.88c0,1.1,0,1.1,0,1.1c0,1.2-0.11,3.4,0,4.86c0.36,4.84,0.49,20.79,11.51,32.69   c7.37,7.96,19.46,11.51,35.36,11.51c5.75,0,10.89-0.88,15.42-2.67c4.52-1.78,8.49-4.04,11.92-6.79c3.42-2.73,6.44-5.89,9.04-9.45   c2.6-3.56,2.6-3.56,2.6-3.56c2.53-3.7,13.52-6.72,24.43-6.72h18.7c10.91,0,16.19,8.15,11.72,18.1c0,0-2.02,4.51-8.33,13.55   c-6.31,9.05-13.84,16.65-22.61,22.82c-8.77,6.17-18.98,10.76-30.63,13.77c-11.66,3.02-25.15,4.52-40.49,4.52   c-14.26,0-27.21-1.92-38.85-5.75c-11.65-3.84-21.58-9.66-29.81-17.47c-8.22-7.81-14.59-17.47-19.11-28.98   c-4.52-11.51-6.78-24.94-6.78-40.29c0-16.99,2.73-33.36,8.22-49.13c5.48-15.76,13.22-29.73,23.23-41.93   c10-12.19,22.26-21.92,36.8-29.19c14.52-7.26,30.83-10.89,48.92-10.89c14.8,0,28.29,1.92,40.49,5.75   c12.19,3.84,22.61,9.66,31.24,17.47c8.63,7.81,15.34,17.54,20.14,29.19c4.79,11.65,7.2,25.15,7.2,40.49   c0,10.42-0.47,13.66-0.47,13.66c-1.55,10.8-11.75,19.64-22.66,19.64H2191.5c-10.91,0-18.02,0.9-20.03,1.62   C2171.47,367.8,2171.26,368.79,2171.26,369.88z M2273.82,312.95c-0.96-5.35-2.81-10.21-5.55-14.59   c-2.74-4.38-6.72-7.88-11.92-10.48c-5.21-2.6-12.07-3.9-20.56-3.9c-8.22,0-15.49,1.23-21.79,3.7c-6.31,2.47-11.78,5.76-16.45,9.87   c-4.66,4.11-8.57,8.91-11.72,14.39c-3.15,5.48-3.15,5.48-3.15,5.48c-2.68,6.48,4.06,11.78,14.97,11.78h57.76   c10.91,0,19.62-4.9,19.36-10.89C2274.78,318.29,2274.78,318.29,2273.82,312.95z"/>
	<path class="st0" d="M1489.03,245.73c10.91,0,17.9,8.6,15.52,19.12s-4.13,19.3-3.9,19.53c0.23,0.23,5.2-7.12,11.06-16.33   c0,0,5.86-9.22,19.16-16.76c13.29-7.54,27.75-11.3,43.37-11.3c6.03,0,6.03,0,6.03,0c6.63,0.68,10.22,9.97,7.98,20.65l-3.76,17.9   c-2.24,10.68-7.78,18.67-12.3,17.77c0,0,0,0-4.11-0.82c-4.11-0.82-8.22-1.23-12.33-1.23c-11.24,0-20.76,1.92-28.57,5.76   c-7.81,3.84-14.39,9.04-19.73,15.62c-5.34,6.58-9.6,14.05-12.74,22.4c-3.15,8.36-3.15,8.36-3.15,8.36   c-2.45,9.76-6.29,26.48-8.52,37.16l-11.59,55.31c-2.24,10.68-13,19.42-23.91,19.42h-18.29c-10.91,0-18.03-8.74-15.82-19.43   l35.95-173.69c2.21-10.68,12.95-19.43,23.86-19.43H1489.03z"/>
	<path class="st0" d="M1970.02,164.74c10.91,0,18,8.74,15.76,19.41l-13.62,64.77c-2.25,10.68-3.9,19.41-3.67,19.41   c0.23,0,6.94-6.09,14.92-13.53c0,0,3.79-3.53,13.24-8.05c9.45-4.52,21.17-6.78,35.15-6.78c13.7,0,25.34,2.4,34.94,7.19   c9.59,4.8,17.47,11.3,23.64,19.53c6.17,8.22,10.69,17.82,13.57,28.78c2.88,10.97,4.32,22.61,4.32,34.94   c0,16.44-2.33,32.68-6.99,48.72c-4.66,16.04-11.65,30.29-20.97,42.76s-20.83,22.55-34.53,30.21c-13.71,7.67-29.6,11.51-47.69,11.51   c-14.8,0-28.3-2.74-40.49-8.22c-12.2-5.48-16.45-13.1-16.45-13.1c-5.31-9.53-9.85-17.33-10.07-17.33c-0.23,0-1.98,7.49-3.9,16.65   c-1.92,9.16-12.42,16.65-23.33,16.65h-13.77c-10.91,0-18.01-8.74-15.79-19.42l53.15-254.69c2.23-10.68,12.98-19.42,23.89-19.42   H1970.02z M1979.17,293.01c-7.95,6.03-14.46,13.57-19.53,22.61c-5.07,9.04-8.77,18.91-11.1,29.6c-2.33,10.69-3.49,20.7-3.49,30.01   c0,13.15,3.7,23.91,11.1,32.27c7.4,8.36,17.81,12.54,31.24,12.54c11.24,0,20.76-2.88,28.58-8.63c7.81-5.76,14.25-13.08,19.32-22   c5.07-8.9,8.77-18.56,11.1-28.98c2.32-10.41,3.49-20.15,3.49-29.19c0-13.43-3.15-24.67-9.46-33.71   c-6.31-9.05-16.99-13.57-32.07-13.57C1996.85,283.96,1987.11,286.98,1979.17,293.01z"/>
	<path class="st0" d="M2465.4,245.73c10.91,0,17.82,8.7,15.36,19.33l-0.09,0.4c-2.46,10.63-13.4,19.33-24.31,19.33h-1.84   c-10.91,0-21.64,8.74-23.85,19.43l-13.78,66.8c-2.2,10.69-4.44,21.31-4.97,23.61c0,0,0,0-0.27,1.78c-0.28,1.78-0.41,3.08-0.41,3.9   c0,3.84,0.62,6.78,1.85,8.84c1.24,2.06,2.81,3.64,4.73,4.73c1.92,1.1,4.04,1.72,6.38,1.85c2.32,0.14,4.58,0.21,6.78,0.21   c7.12,0,7.12,0,7.12,0c7.61-0.68,11.93,7.48,9.58,18.14l-1.34,6.07c-2.35,10.66-9.7,19.83-16.33,20.4c0,0,0,0-6.03,0.42   c-6.03,0.41-12.2,0.61-18.5,0.61c-6.85,0-13.63-0.61-20.35-1.85c-6.72-1.23-12.75-3.43-18.09-6.58   c-5.34-3.14-9.59-7.46-12.74-12.95c-3.15-5.48-4.59-12.6-4.32-21.38c0-2.74,0.27-5.82,0.82-9.25c0.54-3.42,0.54-3.42,0.54-3.42   c0.83-4.11,3.34-16.21,5.58-26.89l15.71-75.05c2.24-10.68-4.54-19.42-15.05-19.42s-17.1-8.7-14.64-19.33l0.09-0.4   c2.46-10.63,12.89-19.33,23.18-19.33s20.49-8.75,22.67-19.44l5.23-25.67c2.18-10.69,12.89-19.44,23.8-19.44h18.7   c10.91,0,18.06,8.75,15.88,19.44l-5.23,25.67c-2.18,10.69,4.97,19.44,15.88,19.44H2465.4z"/>
	<circle class="st0" cx="1823.86" cy="419.91" r="41.3"/>
</g>
<g>
	<g>
		<path class="st1" d="M509.88,206.9c-47.74-47.74-115.21-63.63-176.14-47.78c6.98,10.7,11.54,22.69,13.43,35.28    c35.7,5.71,69.99,22.32,97.51,49.84c10.19,10.19,18.84,21.33,26.04,33.1c4.38,0.73,8.74,1.79,13.04,3.18    c22.79,7.37,41.35,23.18,52.26,44.51c22.51,44.03,5,98.16-39.03,120.68c-6.77,3.46-13.78,5.95-20.87,7.57    c-0.38,0.72-0.79,1.42-1.18,2.13c-3.72,12.89-8.81,25.46-15.25,37.49c-2.31,4.31-4.78,8.5-7.39,12.6    c20.92-8.94,40.52-21.92,57.58-38.99C581.57,394.81,581.57,278.59,509.88,206.9z"/>
		
			<ellipse transform="matrix(0.0118 -0.9999 0.9999 0.0118 91.3922 829.3892)" class="st1" cx="465.31" cy="368.46" rx="63.04" ry="63.04"/>
	</g>
	<g>
		
			<ellipse transform="matrix(0.7071 -0.7071 0.7071 0.7071 -57.9176 236.6218)" class="st2" cx="256.67" cy="188.22" rx="63.04" ry="63.04"/>
		<path class="st2" d="M316.34,106.59c-97.92-26.24-198.58,31.87-224.82,129.8c-18.1,67.56,3.96,136.39,51.52,181.21    c3.97-12.22,10.54-23.45,19.4-33.01c-13.24-34.03-16.17-72.43-6-110.41c4.24-15.81,10.51-30.53,18.4-44    c-1.32-3.71-2.42-7.52-3.26-11.43c-5.01-23.43-0.6-47.4,12.42-67.51c13.02-20.11,33.09-33.94,56.52-38.95    c23.43-5.02,47.4-0.6,67.51,12.42c7.36,4.77,13.88,10.49,19.43,16.97c15.51-4.34,31.64-6.78,48.1-7.16    C358.15,122.07,338.25,112.46,316.34,106.59z"/>
	</g>
	
		<ellipse transform="matrix(0.7071 -0.7071 0.7071 0.7071 -261.1726 286.5016)" class="st3" cx="215.25" cy="458.51" rx="63.04" ry="63.04"/>
	<path class="st3" d="M448.63,455.51c-1.55,0-3.09-0.04-4.64-0.12c-0.46-0.02-0.92-0.07-1.38-0.11c-1.08-0.07-2.17-0.15-3.25-0.26   c-0.51-0.05-1.01-0.13-1.52-0.19c-1.03-0.12-2.05-0.25-3.08-0.41c-0.51-0.08-1.01-0.18-1.52-0.27c-1.02-0.18-2.03-0.35-3.04-0.56   c-0.49-0.1-0.98-0.23-1.47-0.34c-1.02-0.23-2.03-0.46-3.04-0.73c-0.47-0.13-0.94-0.27-1.42-0.4c-1.02-0.29-2.03-0.58-3.03-0.9   c-0.46-0.15-0.91-0.31-1.37-0.46c-1.01-0.34-2.01-0.68-3-1.06c-0.45-0.17-0.9-0.35-1.35-0.53c-1.13-0.45-2.26-0.89-3.37-1.39   c-22.62,26.83-53.37,47.28-89.84,57.05c-10.92,2.93-21.88,4.76-32.76,5.58c-16.54,19.85-41.41,32.4-68.88,32.4   c-1.53,0-3.07-0.04-4.62-0.12c-23.93-1.22-45.94-11.69-61.99-29.47c-16.05-17.78-24.22-40.75-23-64.67   c0.19-3.72,0.63-7.39,1.26-11.01c-0.02-0.02-0.03-0.04-0.04-0.06l-4.46-4.2c-14.57-13.73-26.69-29.35-36.21-46.25   c-1.77,20.65-0.06,41.95,5.61,63.13c26.24,97.92,126.89,156.04,224.82,129.8c5.79-1.55,18.09-5.67,18.66-5.88   c55.12-20.41,95.42-65.28,111.7-118.68C451.15,455.46,449.89,455.51,448.63,455.51z"/>
</g>
</svg>