<?xml version="1.0" encoding="UTF-8" standalone="no" ?>
<!DOCTYPE svg PUBLIC "-//W3C//DTD SVG 1.1//EN" "http://www.w3.org/Graphics/SVG/1.1/DTD/svg11.dtd">
<svg xmlns="http://www.w3.org/2000/svg" xmlns:xlink="http://www.w3.org/1999/xlink" version="1.1" width="1080" height="1080" viewBox="0 0 1080 1080" xml:space="preserve">
<desc>Created with Fabric.js 5.2.4</desc>
<defs>
</defs>
<rect x="0" y="0" width="100%" height="100%" fill="transparent"></rect>
<g transform="matrix(1 0 0 1 540 540)" id="d21e6deb-b641-4f92-8432-e0cabfb589d9"  >
<rect style="stroke: none; stroke-width: 1; stroke-dasharray: none; stroke-linecap: butt; stroke-dashoffset: 0; stroke-linejoin: miter; stroke-miterlimit: 4; fill: rgb(255,255,255); fill-rule: nonzero; opacity: 1; visibility: hidden;" vector-effect="non-scaling-stroke"  x="-540" y="-540" rx="0" ry="0" width="1080" height="1080" />
</g>
<g transform="matrix(1 0 0 1 540 540)" id="b9540213-7ccc-4850-9d83-6a48f9afc4fe"  >
</g>
<g transform="matrix(1.86 0 0 1.86 2323.83 540)"  >
<g style="" vector-effect="non-scaling-stroke"   >
		<g transform="matrix(1 0 0 1 -516.35 46.66)"  >
<path style="stroke: none; stroke-width: 1; stroke-dasharray: none; stroke-linecap: butt; stroke-dashoffset: 0; stroke-linejoin: miter; stroke-miterlimit: 4; fill: rgb(255,255,255); fill-rule: nonzero; opacity: 1;" vector-effect="non-scaling-stroke"  transform=" translate(-766.89, -389.22)" d="M 835.91 488.28 C 829.88 499.78999999999996 822.14 509.25 812.68 516.65 C 803.2199999999999 524.05 791.9799999999999 529.53 778.9699999999999 533.1 C 765.9499999999999 536.66 750.67 538.44 733.1299999999999 538.44 C 722.4399999999998 538.44 711.6799999999998 537.2 700.8599999999999 534.74 C 690.0299999999999 532.27 680.31 528.3 671.6699999999998 522.82 C 663.0399999999998 517.33 656.0499999999998 510.21000000000004 650.7099999999998 501.44000000000005 C 645.3699999999998 492.6700000000001 644.9199999999998 488.6700000000001 644.9199999999998 488.6700000000001 C 643.6999999999998 477.8300000000001 651.6199999999999 468.9600000000001 662.5299999999999 468.9600000000001 L 680.8199999999998 468.9600000000001 C 691.7299999999998 468.9600000000001 700.9699999999998 473.5200000000001 701.3399999999998 479.1000000000001 C 701.3399999999998 479.1000000000001 701.3399999999998 479.1000000000001 703.5299999999999 482.94000000000005 C 705.7199999999999 486.78000000000003 708.6699999999998 489.93000000000006 712.3699999999999 492.40000000000003 C 716.0699999999999 494.87000000000006 720.2399999999999 496.65000000000003 724.9099999999999 497.74 C 729.5699999999998 498.83 734.2199999999998 499.39 738.8799999999999 499.39 C 748.1999999999999 499.39 755.9399999999998 497.46999999999997 762.1099999999999 493.64 C 768.2699999999999 489.78999999999996 773.55 484.59 777.9399999999999 478.02 C 782.3199999999999 471.44 786.02 463.63 789.04 454.59 C 792.06 445.54999999999995 792.29 444.78999999999996 792.29 444.78999999999996 C 795.48 434.35999999999996 797.9 425.62999999999994 797.68 425.40999999999997 C 797.4499999999999 425.17999999999995 790.53 430.84999999999997 782.29 438.01 C 782.29 438.01 762.73 455.01 738.89 455.01 C 726.29 455.01 714.91 452.95 704.77 448.84 C 694.63 444.72999999999996 686.0699999999999 438.84 679.0799999999999 431.15999999999997 C 672.0999999999999 423.48999999999995 666.68 414.36999999999995 662.8399999999999 403.82 C 658.9999999999999 393.27 657.0899999999999 381.40999999999997 657.0899999999999 368.26 C 657.0899999999999 352.64 659.4899999999999 337.21999999999997 664.28 322.01 C 669.0699999999999 306.8 676.06 293.09999999999997 685.25 280.9 C 694.43 268.71 705.66 258.84 718.96 251.29999999999998 C 732.25 243.76 747.39 239.99999999999997 764.39 239.99999999999997 C 779.1899999999999 239.99999999999997 792.1999999999999 242.87999999999997 803.4399999999999 248.62999999999997 C 814.68 254.37999999999997 818.9499999999999 261.33 818.9499999999999 261.33 C 824.67 270.62 829.53 278.22999999999996 829.7499999999999 278.22999999999996 C 829.9699999999998 278.22999999999996 831.6399999999999 270.91999999999996 833.4499999999999 261.98999999999995 C 835.2599999999999 253.05999999999995 845.67 245.74999999999994 856.5799999999999 245.74999999999994 L 872.81 245.74999999999994 C 883.7199999999999 245.74999999999994 890.81 254.48999999999995 888.5699999999999 265.15999999999997 L 854.39 427.77 C 852.15 438.45 847.88 455.77 844.92 466.28 C 844.9 466.26 841.93 476.77 835.91 488.28 z M 749.17 291.77 C 741.77 296.97999999999996 735.5999999999999 303.49 730.67 311.29999999999995 C 725.74 319.10999999999996 721.9699999999999 327.74999999999994 719.37 337.19999999999993 C 716.76 346.6499999999999 715.46 355.63999999999993 715.46 364.12999999999994 C 715.46 370.42999999999995 716.21 376.3999999999999 717.72 382.00999999999993 C 719.22 387.62999999999994 721.62 392.63999999999993 724.9200000000001 397.0199999999999 C 728.21 401.3999999999999 732.32 404.8299999999999 737.2500000000001 407.2999999999999 C 742.1800000000001 409.7699999999999 748.0700000000002 410.9999999999999 754.9300000000001 410.9999999999999 C 765.34 410.9999999999999 774.46 408.4699999999999 782.2700000000001 403.3899999999999 C 790.08 398.3199999999999 796.5200000000001 391.8799999999999 801.5900000000001 384.0699999999999 C 806.6600000000002 376.2599999999999 810.4900000000001 367.5599999999999 813.1000000000001 357.96999999999986 C 815.7000000000002 348.3799999999999 817.0100000000001 339.05999999999983 817.0100000000001 330.0099999999999 C 817.0100000000001 316.57999999999987 813.5800000000002 305.5499999999999 806.7300000000001 296.90999999999985 C 799.8800000000001 288.27999999999986 789.3300000000002 283.95999999999987 775.0700000000002 283.95999999999987 C 765.2 283.96 756.57 286.57 749.17 291.77 z" stroke-linecap="round" />
</g>
		<g transform="matrix(1 0 0 1 -292.73 9.24)"  >
<path style="stroke: none; stroke-width: 1; stroke-dasharray: none; stroke-linecap: butt; stroke-dashoffset: 0; stroke-linejoin: miter; stroke-miterlimit: 4; fill: rgb(255,255,255); fill-rule: nonzero; opacity: 1;" vector-effect="non-scaling-stroke"  transform=" translate(-990.51, -351.81)" d="M 921.83 276.77 C 928.13 267.87 935.8100000000001 260.66999999999996 944.85 255.19 C 953.89 249.71 964.03 245.81 975.27 243.47 C 986.51 241.15 998.15 239.98 1010.22 239.98 C 1019.8100000000001 239.98 1029.81 240.67 1040.23 242.03 C 1050.64 243.4 1060.23 246.08 1069.01 250.05 C 1077.78 254.03 1084.97 259.65000000000003 1090.59 266.91 C 1096.2099999999998 274.17 1098.87 283.83000000000004 1098.61 295.89000000000004 C 1098.61 306.03000000000003 1097.54 312.12000000000006 1097.54 312.12000000000006 C 1095.6399999999999 322.86000000000007 1092.1599999999999 340.37000000000006 1089.81 351.0300000000001 L 1079.47 397.80000000000007 C 1077.1100000000001 408.45000000000005 1074.3500000000001 421.0300000000001 1073.34 425.74000000000007 C 1073.34 425.74000000000007 1073.34 425.74000000000007 1072.9299999999998 431.3500000000001 C 1072.5199999999998 436.9800000000001 1072.31 441.8300000000001 1072.31 445.9500000000001 C 1072.31 449.5100000000001 1072.31 449.5100000000001 1072.31 449.5100000000001 C 1073.44 454.3300000000001 1065.44 458.2800000000001 1054.53 458.2800000000001 L 1035.83 458.2800000000001 C 1024.9199999999998 458.2800000000001 1015.9899999999999 453.56000000000006 1015.9899999999999 447.80000000000007 C 1015.9899999999999 442.0300000000001 1006.3299999999999 448.4800000000001 1001.8299999999999 450.5900000000001 C 998.8499999999999 451.99000000000007 998.3199999999999 453.0100000000001 986.81 457.2600000000001 C 975.3 461.5100000000001 963.38 463.6300000000001 951.04 463.6300000000001 C 939.53 463.6300000000001 929.4599999999999 462.1200000000001 920.8199999999999 459.1100000000001 C 912.1899999999999 456.10000000000014 904.9899999999999 452.0600000000001 899.2399999999999 446.98000000000013 C 893.4899999999999 441.91000000000014 889.2299999999999 436.02000000000015 886.4999999999999 429.3000000000001 C 883.7599999999999 422.59000000000015 882.3899999999999 415.52000000000015 882.3899999999999 408.1200000000001 C 882.3899999999999 387.5700000000001 889.4399999999998 371.1200000000001 903.5599999999998 358.79000000000013 C 917.6699999999998 346.46000000000015 937.6099999999998 338.79000000000013 963.3799999999999 335.77000000000015 C 977.0799999999999 334.13000000000017 988.9999999999999 332.89000000000016 999.1499999999999 332.07000000000016 C 1009.2899999999998 331.25000000000017 1017.7199999999999 329.95000000000016 1024.4299999999998 328.1700000000002 C 1031.1399999999999 326.3900000000002 1036.1399999999999 323.7900000000002 1039.4399999999998 320.3600000000002 C 1042.7299999999998 316.9300000000002 1044.37 311.8000000000002 1044.37 304.94000000000017 C 1044.37 299.46000000000015 1043.1299999999999 295.07000000000016 1040.6699999999998 291.78000000000014 C 1038.2099999999998 288.4900000000001 1035.12 285.89000000000016 1031.4199999999998 283.97000000000014 C 1027.7199999999998 282.0500000000001 1023.7399999999999 280.7500000000001 1019.4999999999999 280.07000000000016 C 1015.2499999999999 279.39000000000016 1011.2099999999999 279.0400000000002 1007.3699999999999 279.0400000000002 C 996.9599999999999 279.0400000000002 981.4499999999999 283.4100000000002 969.3799999999999 294.0400000000002 C 967.0399999999998 296.1000000000002 955.2799999999999 310.2800000000002 944.3599999999999 310.2800000000002 L 929.3599999999999 310.2800000000002 C 918.4499999999999 310.2800000000002 911.6499999999999 301.6100000000002 914.2399999999999 291.0100000000002 C 914.22 291.01 915.52 285.68 921.83 276.77 z M 1008.98 364.34 C 1000.48 365.29999999999995 991.99 366.06 983.49 366.59999999999997 C 978 367.15 972.66 368.03999999999996 967.45 369.27 C 962.24 370.51 957.6500000000001 372.34999999999997 953.6800000000001 374.82 C 949.7 377.29 946.48 380.64 944.0200000000001 384.89 C 941.5500000000001 389.15 940.32 394.55 940.32 401.13 C 940.32 409.08 943.5400000000001 415.04 949.98 419.01 C 956.4200000000001 422.99 963.89 424.96999999999997 972.39 424.96999999999997 C 981.4399999999999 424.96999999999997 989.04 423.53 995.21 420.65 C 1001.37 417.77 1006.58 414.07 1010.83 409.54999999999995 C 1015.08 405.03 1018.44 399.88999999999993 1020.9000000000001 394.13999999999993 C 1023.3700000000001 388.37999999999994 1023.3700000000001 388.37999999999994 1023.3700000000001 388.37999999999994 C 1025.4 382.04999999999995 1028.3600000000001 372.24999999999994 1029.95 366.5899999999999 C 1031.53 360.93999999999994 1026.42 362.2399999999999 1017.48 363.3699999999999 C 1017.47 363.38 1017.47 363.38 1008.98 364.34 z" stroke-linecap="round" />
</g>
		<g transform="matrix(1 0 0 1 395.1 9.24)"  >
<path style="stroke: none; stroke-width: 1; stroke-dasharray: none; stroke-linecap: butt; stroke-dashoffset: 0; stroke-linejoin: miter; stroke-miterlimit: 4; fill: rgb(255,255,255); fill-rule: nonzero; opacity: 1;" vector-effect="non-scaling-stroke"  transform=" translate(-1678.34, -351.81)" d="M 1609.66 276.77 C 1615.96 267.87 1623.64 260.66999999999996 1632.68 255.19 C 1641.72 249.71 1651.8600000000001 245.81 1663.1000000000001 243.47 C 1674.3400000000001 241.15 1685.9800000000002 239.98 1698.0500000000002 239.98 C 1707.64 239.98 1717.64 240.67 1728.0600000000002 242.03 C 1738.4700000000003 243.4 1748.0600000000002 246.08 1756.8400000000001 250.05 C 1765.6100000000001 254.03 1772.8000000000002 259.65000000000003 1778.42 266.91 C 1784.04 274.17 1786.7 283.83000000000004 1786.44 295.89000000000004 C 1786.44 306.03000000000003 1785.3700000000001 312.12000000000006 1785.3700000000001 312.12000000000006 C 1783.47 322.86000000000007 1779.99 340.37000000000006 1777.64 351.0300000000001 L 1767.3000000000002 397.80000000000007 C 1764.9400000000003 408.45000000000005 1762.1800000000003 421.0300000000001 1761.17 425.74000000000007 C 1761.17 425.74000000000007 1761.17 425.74000000000007 1760.76 431.3500000000001 C 1760.35 436.9800000000001 1760.14 441.8300000000001 1760.14 445.9500000000001 C 1760.14 449.5100000000001 1760.14 449.5100000000001 1760.14 449.5100000000001 C 1761.2700000000002 454.3300000000001 1753.2700000000002 458.2800000000001 1742.3600000000001 458.2800000000001 L 1723.66 458.2800000000001 C 1712.75 458.2800000000001 1703.8200000000002 453.56000000000006 1703.8200000000002 447.80000000000007 C 1703.8200000000002 442.0300000000001 1694.16 448.4800000000001 1689.66 450.5900000000001 C 1686.68 451.99000000000007 1686.15 453.0100000000001 1674.64 457.2600000000001 C 1663.13 461.5100000000001 1651.21 463.6300000000001 1638.8700000000001 463.6300000000001 C 1627.3600000000001 463.6300000000001 1617.2900000000002 462.1200000000001 1608.65 459.1100000000001 C 1600.02 456.10000000000014 1592.8200000000002 452.0600000000001 1587.0700000000002 446.98000000000013 C 1581.3200000000002 441.91000000000014 1577.0600000000002 436.02000000000015 1574.3300000000002 429.3000000000001 C 1571.5900000000001 422.59000000000015 1570.2200000000003 415.52000000000015 1570.2200000000003 408.1200000000001 C 1570.2200000000003 387.5700000000001 1577.2700000000002 371.1200000000001 1591.3900000000003 358.79000000000013 C 1605.5000000000002 346.46000000000015 1625.4400000000003 338.79000000000013 1651.2100000000003 335.77000000000015 C 1664.9100000000003 334.13000000000017 1676.8300000000002 332.89000000000016 1686.9800000000002 332.07000000000016 C 1697.1200000000003 331.25000000000017 1705.5500000000002 329.95000000000016 1712.2600000000002 328.1700000000002 C 1718.9700000000003 326.3900000000002 1723.9700000000003 323.7900000000002 1727.2700000000002 320.3600000000002 C 1730.5600000000002 316.9300000000002 1732.2000000000003 311.8000000000002 1732.2000000000003 304.94000000000017 C 1732.2000000000003 299.46000000000015 1730.9600000000003 295.07000000000016 1728.5000000000002 291.78000000000014 C 1726.0300000000002 288.4900000000001 1722.9500000000003 285.89000000000016 1719.2500000000002 283.97000000000014 C 1715.5500000000002 282.0500000000001 1711.5700000000002 280.7500000000001 1707.3300000000002 280.07000000000016 C 1703.0800000000002 279.39000000000016 1699.0400000000002 279.0400000000002 1695.2 279.0400000000002 C 1684.79 279.0400000000002 1669.28 283.4100000000002 1657.21 294.0400000000002 C 1654.8700000000001 296.1000000000002 1643.1100000000001 310.2800000000002 1632.19 310.2800000000002 L 1617.19 310.2800000000002 C 1606.28 310.2800000000002 1599.48 301.6100000000002 1602.0700000000002 291.0100000000002 C 1602.05 291.01 1603.35 285.68 1609.66 276.77 z M 1696.81 364.34 C 1688.31 365.29999999999995 1679.82 366.06 1671.32 366.59999999999997 C 1665.83 367.15 1660.49 368.03999999999996 1655.28 369.27 C 1650.07 370.51 1645.48 372.34999999999997 1641.51 374.82 C 1637.53 377.29 1634.31 380.64 1631.85 384.89 C 1629.3799999999999 389.15 1628.1499999999999 394.55 1628.1499999999999 401.13 C 1628.1499999999999 409.08 1631.37 415.04 1637.81 419.01 C 1644.25 422.99 1651.72 424.96999999999997 1660.22 424.96999999999997 C 1669.27 424.96999999999997 1676.8700000000001 423.53 1683.04 420.65 C 1689.2 417.77 1694.4099999999999 414.07 1698.6599999999999 409.54999999999995 C 1702.9099999999999 405.03 1706.2699999999998 399.88999999999993 1708.7299999999998 394.13999999999993 C 1711.1999999999998 388.37999999999994 1711.1999999999998 388.37999999999994 1711.1999999999998 388.37999999999994 C 1713.2299999999998 382.04999999999995 1716.1899999999998 372.24999999999994 1717.7799999999997 366.5899999999999 C 1719.3599999999997 360.93999999999994 1714.2499999999998 362.2399999999999 1705.3099999999997 363.3699999999999 C 1705.3 363.38 1705.3 363.38 1696.81 364.34 z" stroke-linecap="round" />
</g>
		<g transform="matrix(1 0 0 1 -123.19 -31.07)"  >
<path style="stroke: none; stroke-width: 1; stroke-dasharray: none; stroke-linecap: butt; stroke-dashoffset: 0; stroke-linejoin: miter; stroke-miterlimit: 4; fill: rgb(255,255,255); fill-rule: nonzero; opacity: 1;" vector-effect="non-scaling-stroke"  transform=" translate(-1160.05, -311.5)" d="M 1200.45 164.74 C 1211.3600000000001 164.74 1218.43 173.47 1216.16 184.14000000000001 L 1161.93 438.86 C 1159.66 449.53000000000003 1148.8700000000001 458.26 1137.96 458.26 L 1119.67 458.26 C 1108.76 458.26 1101.68 449.53 1103.94 438.84999999999997 L 1157.81 184.13999999999996 C 1160.07 173.46999999999997 1170.84 164.72999999999996 1181.75 164.72999999999996 L 1200.45 164.72999999999996 z" stroke-linecap="round" />
</g>
		<g transform="matrix(1 0 0 1 23.37 9.23)"  >
<path style="stroke: none; stroke-width: 1; stroke-dasharray: none; stroke-linecap: butt; stroke-dashoffset: 0; stroke-linejoin: miter; stroke-miterlimit: 4; fill: rgb(255,255,255); fill-rule: nonzero; opacity: 1;" vector-effect="non-scaling-stroke"  transform=" translate(-1306.61, -351.79)" d="M 1254.4 369.88 C 1254.4 370.98 1254.4 370.98 1254.4 370.98 C 1254.4 372.18 1254.2900000000002 374.38 1254.4 375.84000000000003 C 1254.76 380.68 1254.89 396.63000000000005 1265.91 408.53000000000003 C 1273.28 416.49 1285.3700000000001 420.04 1301.27 420.04 C 1307.02 420.04 1312.16 419.16 1316.69 417.37 C 1321.21 415.59000000000003 1325.18 413.33 1328.6100000000001 410.58 C 1332.0300000000002 407.84999999999997 1335.0500000000002 404.69 1337.65 401.13 C 1340.25 397.57 1340.25 397.57 1340.25 397.57 C 1342.78 393.87 1353.77 390.84999999999997 1364.68 390.84999999999997 L 1383.38 390.84999999999997 C 1394.2900000000002 390.84999999999997 1399.5600000000002 398.99999999999994 1395.1000000000001 408.95 C 1395.1000000000001 408.95 1393.0800000000002 413.46 1386.7700000000002 422.5 C 1380.4600000000003 431.55 1372.9300000000003 439.15 1364.1600000000003 445.32 C 1355.3900000000003 451.49 1345.1800000000003 456.08 1333.5300000000002 459.09 C 1321.8700000000001 462.10999999999996 1308.38 463.60999999999996 1293.0400000000002 463.60999999999996 C 1278.7800000000002 463.60999999999996 1265.8300000000002 461.68999999999994 1254.1900000000003 457.85999999999996 C 1242.5400000000002 454.02 1232.6100000000004 448.19999999999993 1224.3800000000003 440.39 C 1216.1600000000003 432.58 1209.7900000000004 422.91999999999996 1205.2700000000004 411.40999999999997 C 1200.7500000000005 399.9 1198.4900000000005 386.46999999999997 1198.4900000000005 371.11999999999995 C 1198.4900000000005 354.12999999999994 1201.2200000000005 337.75999999999993 1206.7100000000005 321.98999999999995 C 1212.1900000000005 306.22999999999996 1219.9300000000005 292.25999999999993 1229.9400000000005 280.05999999999995 C 1239.9400000000005 267.86999999999995 1252.2000000000005 258.13999999999993 1266.7400000000005 250.86999999999995 C 1281.2600000000004 243.60999999999996 1297.5700000000004 239.97999999999996 1315.6600000000005 239.97999999999996 C 1330.4600000000005 239.97999999999996 1343.9500000000005 241.89999999999995 1356.1500000000005 245.72999999999996 C 1368.3400000000006 249.56999999999996 1378.7600000000004 255.38999999999996 1387.3900000000006 263.19999999999993 C 1396.0200000000007 271.00999999999993 1402.7300000000005 280.73999999999995 1407.5300000000007 292.38999999999993 C 1412.3200000000006 304.0399999999999 1414.7300000000007 317.5399999999999 1414.7300000000007 332.87999999999994 C 1414.7300000000007 343.29999999999995 1414.2600000000007 346.53999999999996 1414.2600000000007 346.53999999999996 C 1412.7100000000007 357.34 1402.5100000000007 366.17999999999995 1391.6000000000006 366.17999999999995 L 1274.6500000000005 366.17999999999995 C 1263.7400000000005 366.17999999999995 1256.6300000000006 367.0799999999999 1254.6200000000006 367.79999999999995 C 1254.62 367.8 1254.4 368.79 1254.4 369.88 z M 1356.97 312.95 C 1356.01 307.59999999999997 1354.16 302.74 1351.42 298.36 C 1348.68 293.98 1344.7 290.48 1339.5 287.88 C 1334.29 285.28 1327.43 283.98 1318.94 283.98 C 1310.72 283.98 1303.45 285.21000000000004 1297.15 287.68 C 1290.8400000000001 290.15000000000003 1285.3700000000001 293.44 1280.7 297.55 C 1276.04 301.66 1272.13 306.46000000000004 1268.99 311.94 C 1265.84 317.42 1265.84 317.42 1265.84 317.42 C 1263.1599999999999 323.90000000000003 1269.8999999999999 329.2 1280.81 329.2 L 1338.57 329.2 C 1349.48 329.2 1358.1899999999998 324.3 1357.9299999999998 318.31 C 1357.93 318.29 1357.93 318.29 1356.97 312.95 z" stroke-linecap="round" />
</g>
		<g transform="matrix(1 0 0 1 940.23 9.23)"  >
<path style="stroke: none; stroke-width: 1; stroke-dasharray: none; stroke-linecap: butt; stroke-dashoffset: 0; stroke-linejoin: miter; stroke-miterlimit: 4; fill: rgb(255,255,255); fill-rule: nonzero; opacity: 1;" vector-effect="non-scaling-stroke"  transform=" translate(-2223.47, -351.79)" d="M 2171.26 369.88 C 2171.26 370.98 2171.26 370.98 2171.26 370.98 C 2171.26 372.18 2171.15 374.38 2171.26 375.84000000000003 C 2171.6200000000003 380.68 2171.75 396.63000000000005 2182.7700000000004 408.53000000000003 C 2190.1400000000003 416.49 2202.2300000000005 420.04 2218.1300000000006 420.04 C 2223.8800000000006 420.04 2229.0200000000004 419.16 2233.5500000000006 417.37 C 2238.0700000000006 415.59000000000003 2242.0400000000004 413.33 2245.4700000000007 410.58 C 2248.890000000001 407.84999999999997 2251.9100000000008 404.69 2254.5100000000007 401.13 C 2257.1100000000006 397.57 2257.1100000000006 397.57 2257.1100000000006 397.57 C 2259.640000000001 393.87 2270.6300000000006 390.84999999999997 2281.5400000000004 390.84999999999997 L 2300.2400000000002 390.84999999999997 C 2311.15 390.84999999999997 2316.4300000000003 398.99999999999994 2311.96 408.95 C 2311.96 408.95 2309.94 413.46 2303.63 422.5 C 2297.32 431.55 2289.79 439.15 2281.02 445.32 C 2272.25 451.49 2262.04 456.08 2250.39 459.09 C 2238.73 462.10999999999996 2225.24 463.60999999999996 2209.9 463.60999999999996 C 2195.64 463.60999999999996 2182.69 461.68999999999994 2171.05 457.85999999999996 C 2159.4 454.02 2149.4700000000003 448.19999999999993 2141.2400000000002 440.39 C 2133.0200000000004 432.58 2126.65 422.91999999999996 2122.13 411.40999999999997 C 2117.61 399.9 2115.35 386.46999999999997 2115.35 371.11999999999995 C 2115.35 354.12999999999994 2118.08 337.75999999999993 2123.5699999999997 321.98999999999995 C 2129.0499999999997 306.22999999999996 2136.7899999999995 292.25999999999993 2146.7999999999997 280.05999999999995 C 2156.7999999999997 267.86999999999995 2169.06 258.13999999999993 2183.6 250.86999999999995 C 2198.12 243.60999999999996 2214.43 239.97999999999996 2232.52 239.97999999999996 C 2247.32 239.97999999999996 2260.81 241.89999999999995 2273.0099999999998 245.72999999999996 C 2285.2 249.56999999999996 2295.62 255.38999999999996 2304.2499999999995 263.19999999999993 C 2312.8799999999997 271.00999999999993 2319.5899999999997 280.73999999999995 2324.3899999999994 292.38999999999993 C 2329.1799999999994 304.0399999999999 2331.5899999999992 317.5399999999999 2331.5899999999992 332.87999999999994 C 2331.5899999999992 343.29999999999995 2331.1199999999994 346.53999999999996 2331.1199999999994 346.53999999999996 C 2329.5699999999993 357.34 2319.3699999999994 366.17999999999995 2308.4599999999996 366.17999999999995 L 2191.5 366.17999999999995 C 2180.59 366.17999999999995 2173.48 367.0799999999999 2171.47 367.79999999999995 C 2171.47 367.8 2171.26 368.79 2171.26 369.88 z M 2273.82 312.95 C 2272.86 307.59999999999997 2271.01 302.74 2268.27 298.36 C 2265.53 293.98 2261.55 290.48 2256.35 287.88 C 2251.14 285.28 2244.2799999999997 283.98 2235.79 283.98 C 2227.57 283.98 2220.3 285.21000000000004 2214 287.68 C 2207.69 290.15000000000003 2202.22 293.44 2197.55 297.55 C 2192.8900000000003 301.66 2188.98 306.46000000000004 2185.8300000000004 311.94 C 2182.6800000000003 317.42 2182.6800000000003 317.42 2182.6800000000003 317.42 C 2180.0000000000005 323.90000000000003 2186.7400000000002 329.2 2197.65 329.2 L 2255.4100000000003 329.2 C 2266.32 329.2 2275.03 324.3 2274.7700000000004 318.31 C 2274.78 318.29 2274.78 318.29 2273.82 312.95 z" stroke-linecap="round" />
</g>
		<g transform="matrix(1 0 0 1 217.73 6.58)"  >
<path style="stroke: none; stroke-width: 1; stroke-dasharray: none; stroke-linecap: butt; stroke-dashoffset: 0; stroke-linejoin: miter; stroke-miterlimit: 4; fill: rgb(255,255,255); fill-rule: nonzero; opacity: 1;" vector-effect="non-scaling-stroke"  transform=" translate(-1500.97, -349.14)" d="M 1489.03 245.73 C 1499.94 245.73 1506.93 254.32999999999998 1504.55 264.84999999999997 C 1502.1699999999998 275.36999999999995 1500.4199999999998 284.15 1500.6499999999999 284.38 C 1500.8799999999999 284.61 1505.85 277.26 1511.7099999999998 268.05 C 1511.7099999999998 268.05 1517.5699999999997 258.83 1530.87 251.29000000000002 C 1544.1599999999999 243.75000000000003 1558.62 239.99 1574.2399999999998 239.99 C 1580.2699999999998 239.99 1580.2699999999998 239.99 1580.2699999999998 239.99 C 1586.8999999999999 240.67000000000002 1590.4899999999998 249.96 1588.2499999999998 260.64 L 1584.4899999999998 278.53999999999996 C 1582.2499999999998 289.21999999999997 1576.7099999999998 297.21 1572.1899999999998 296.30999999999995 C 1572.1899999999998 296.30999999999995 1572.1899999999998 296.30999999999995 1568.08 295.48999999999995 C 1563.97 294.66999999999996 1559.86 294.25999999999993 1555.75 294.25999999999993 C 1544.51 294.25999999999993 1534.99 296.17999999999995 1527.18 300.0199999999999 C 1519.3700000000001 303.8599999999999 1512.79 309.05999999999995 1507.45 315.63999999999993 C 1502.1100000000001 322.2199999999999 1497.8500000000001 329.68999999999994 1494.71 338.0399999999999 C 1491.56 346.3999999999999 1491.56 346.3999999999999 1491.56 346.3999999999999 C 1489.11 356.1599999999999 1485.27 372.87999999999994 1483.04 383.55999999999995 L 1471.45 438.86999999999995 C 1469.21 449.54999999999995 1458.45 458.28999999999996 1447.54 458.28999999999996 L 1429.25 458.28999999999996 C 1418.34 458.28999999999996 1411.22 449.54999999999995 1413.43 438.85999999999996 L 1449.38 265.16999999999996 C 1451.5900000000001 254.48999999999995 1462.3300000000002 245.73999999999995 1473.24 245.73999999999995 L 1489.03 245.73999999999995 z" stroke-linecap="round" />
</g>
		<g transform="matrix(1 0 0 1 707.84 -28.39)"  >
<path style="stroke: none; stroke-width: 1; stroke-dasharray: none; stroke-linecap: butt; stroke-dashoffset: 0; stroke-linejoin: miter; stroke-miterlimit: 4; fill: rgb(255,255,255); fill-rule: nonzero; opacity: 1;" vector-effect="non-scaling-stroke"  transform=" translate(-1991.08, -314.17)" d="M 1970.02 164.74 C 1980.93 164.74 1988.02 173.48000000000002 1985.78 184.15 L 1972.16 248.92000000000002 C 1969.91 259.6 1968.26 268.33000000000004 1968.49 268.33000000000004 C 1968.72 268.33000000000004 1975.43 262.24000000000007 1983.41 254.80000000000004 C 1983.41 254.80000000000004 1987.2 251.27000000000004 1996.65 246.75000000000003 C 2006.1000000000001 242.23000000000002 2017.8200000000002 239.97000000000003 2031.8000000000002 239.97000000000003 C 2045.5000000000002 239.97000000000003 2057.1400000000003 242.37000000000003 2066.7400000000002 247.16000000000003 C 2076.3300000000004 251.96000000000004 2084.21 258.46000000000004 2090.38 266.69000000000005 C 2096.55 274.9100000000001 2101.07 284.51000000000005 2103.9500000000003 295.47 C 2106.8300000000004 306.44000000000005 2108.2700000000004 318.08000000000004 2108.2700000000004 330.41 C 2108.2700000000004 346.85 2105.9400000000005 363.09000000000003 2101.2800000000007 379.13 C 2096.620000000001 395.17 2089.6300000000006 409.42 2080.310000000001 421.89 C 2070.990000000001 434.35999999999996 2059.480000000001 444.44 2045.7800000000009 452.09999999999997 C 2032.0700000000008 459.77 2016.180000000001 463.60999999999996 1998.0900000000008 463.60999999999996 C 1983.2900000000009 463.60999999999996 1969.7900000000009 460.86999999999995 1957.6000000000008 455.38999999999993 C 1945.4000000000008 449.9099999999999 1941.1500000000008 442.2899999999999 1941.1500000000008 442.2899999999999 C 1935.8400000000008 432.75999999999993 1931.3000000000009 424.9599999999999 1931.0800000000008 424.9599999999999 C 1930.8500000000008 424.9599999999999 1929.1000000000008 432.44999999999993 1927.1800000000007 441.6099999999999 C 1925.2600000000007 450.7699999999999 1914.7600000000007 458.2599999999999 1903.8500000000008 458.2599999999999 L 1890.0800000000008 458.2599999999999 C 1879.1700000000008 458.2599999999999 1872.0700000000008 449.51999999999987 1874.2900000000009 438.83999999999986 L 1927.440000000001 184.14999999999986 C 1929.670000000001 173.46999999999986 1940.420000000001 164.72999999999985 1951.330000000001 164.72999999999985 L 1970.02 164.72999999999985 z M 1979.17 293.01 C 1971.22 299.03999999999996 1964.71 306.58 1959.64 315.62 C 1954.5700000000002 324.66 1950.8700000000001 334.53000000000003 1948.5400000000002 345.22 C 1946.2100000000003 355.91 1945.0500000000002 365.92 1945.0500000000002 375.23 C 1945.0500000000002 388.38 1948.7500000000002 399.14000000000004 1956.15 407.5 C 1963.5500000000002 415.86 1973.96 420.04 1987.39 420.04 C 1998.63 420.04 2008.15 417.16 2015.97 411.41 C 2023.78 405.65000000000003 2030.22 398.33000000000004 2035.29 389.41 C 2040.36 380.51000000000005 2044.06 370.85 2046.3899999999999 360.43 C 2048.71 350.02 2049.8799999999997 340.28000000000003 2049.8799999999997 331.24 C 2049.8799999999997 317.81 2046.7299999999996 306.57 2040.4199999999996 297.53000000000003 C 2034.1099999999997 288.48 2023.4299999999996 283.96000000000004 2008.3499999999997 283.96000000000004 C 1996.85 283.96 1987.11 286.98 1979.17 293.01 z" stroke-linecap="round" />
</g>
		<g transform="matrix(1 0 0 1 1128.6 -21.18)"  >
<path style="stroke: none; stroke-width: 1; stroke-dasharray: none; stroke-linecap: butt; stroke-dashoffset: 0; stroke-linejoin: miter; stroke-miterlimit: 4; fill: rgb(255,255,255); fill-rule: nonzero; opacity: 1;" vector-effect="non-scaling-stroke"  transform=" translate(-2411.84, -321.38)" d="M 2465.4 245.73 C 2476.31 245.73 2483.2200000000003 254.42999999999998 2480.76 265.06 L 2480.67 265.46 C 2478.21 276.09 2467.27 284.78999999999996 2456.36 284.78999999999996 L 2454.52 284.78999999999996 C 2443.61 284.78999999999996 2432.88 293.53 2430.67 304.21999999999997 L 2416.89 371.02 C 2414.69 381.71 2412.45 392.33 2411.92 394.63 C 2411.92 394.63 2411.92 394.63 2411.65 396.40999999999997 C 2411.37 398.18999999999994 2411.2400000000002 399.48999999999995 2411.2400000000002 400.30999999999995 C 2411.2400000000002 404.1499999999999 2411.86 407.0899999999999 2413.09 409.1499999999999 C 2414.33 411.2099999999999 2415.9 412.7899999999999 2417.82 413.87999999999994 C 2419.7400000000002 414.97999999999996 2421.86 415.59999999999997 2424.2000000000003 415.72999999999996 C 2426.5200000000004 415.86999999999995 2428.78 415.93999999999994 2430.9800000000005 415.93999999999994 C 2438.1000000000004 415.93999999999994 2438.1000000000004 415.93999999999994 2438.1000000000004 415.93999999999994 C 2445.7100000000005 415.25999999999993 2450.03 423.41999999999996 2447.6800000000003 434.0799999999999 L 2446.34 440.1499999999999 C 2443.9900000000002 450.80999999999995 2436.6400000000003 459.9799999999999 2430.01 460.5499999999999 C 2430.01 460.5499999999999 2430.01 460.5499999999999 2423.98 460.9699999999999 C 2417.95 461.37999999999994 2411.78 461.5799999999999 2405.48 461.5799999999999 C 2398.63 461.5799999999999 2391.85 460.9699999999999 2385.13 459.7299999999999 C 2378.4100000000003 458.4999999999999 2372.38 456.2999999999999 2367.04 453.1499999999999 C 2361.7 450.00999999999993 2357.45 445.68999999999994 2354.3 440.19999999999993 C 2351.15 434.7199999999999 2349.71 427.5999999999999 2349.98 418.81999999999994 C 2349.98 416.0799999999999 2350.25 412.99999999999994 2350.8 409.56999999999994 C 2351.34 406.1499999999999 2351.34 406.1499999999999 2351.34 406.1499999999999 C 2352.17 402.0399999999999 2354.6800000000003 389.93999999999994 2356.92 379.25999999999993 L 2372.63 304.2099999999999 C 2374.87 293.5299999999999 2368.09 284.7899999999999 2357.58 284.7899999999999 C 2347.0699999999997 284.7899999999999 2340.48 276.0899999999999 2342.94 265.4599999999999 L 2343.03 265.05999999999995 C 2345.4900000000002 254.42999999999995 2355.92 245.72999999999996 2366.21 245.72999999999996 C 2376.5 245.72999999999996 2386.7 236.97999999999996 2388.88 226.28999999999996 L 2394.11 200.61999999999995 C 2396.29 189.92999999999995 2407 181.17999999999995 2417.9100000000003 181.17999999999995 L 2436.61 181.17999999999995 C 2447.52 181.17999999999995 2454.67 189.92999999999995 2452.4900000000002 200.61999999999995 L 2447.26 226.28999999999996 C 2445.0800000000004 236.97999999999996 2452.23 245.72999999999996 2463.1400000000003 245.72999999999996 L 2465.4 245.72999999999996 z" stroke-linecap="round" />
</g>
		<g transform="matrix(1 0 0 1 540.62 77.35)"  >
<circle style="stroke: none; stroke-width: 1; stroke-dasharray: none; stroke-linecap: butt; stroke-dashoffset: 0; stroke-linejoin: miter; stroke-miterlimit: 4; fill: rgb(255,255,255); fill-rule: nonzero; opacity: 1;" vector-effect="non-scaling-stroke"  cx="0" cy="0" r="41.3" />
</g>
		<g transform="matrix(1 0 0 1 -834.55 -13.22)"  >
<path style="stroke: none; stroke-width: 1; stroke-dasharray: none; stroke-linecap: butt; stroke-dashoffset: 0; stroke-linejoin: miter; stroke-miterlimit: 4; fill: rgb(0,161,228); fill-rule: nonzero; opacity: 1;" vector-effect="non-scaling-stroke"  transform=" translate(-448.69, -329.34)" d="M 509.88 206.9 C 462.14 159.16 394.67 143.27 333.74 159.12 C 340.72 169.82 345.28000000000003 181.81 347.17 194.4 C 382.87 200.11 417.16 216.72 444.68 244.24 C 454.87 254.43 463.52 265.57 470.72 277.34000000000003 C 475.1 278.07000000000005 479.46000000000004 279.13000000000005 483.76000000000005 280.52000000000004 C 506.55000000000007 287.89000000000004 525.11 303.70000000000005 536.0200000000001 325.03000000000003 C 558.5300000000001 369.06000000000006 541.0200000000001 423.19000000000005 496.9900000000001 445.71000000000004 C 490.22000000000014 449.17 483.21000000000015 451.66 476.1200000000001 453.28000000000003 C 475.7400000000001 454.00000000000006 475.3300000000001 454.70000000000005 474.9400000000001 455.41 C 471.2200000000001 468.3 466.1300000000001 480.87 459.6900000000001 492.90000000000003 C 457.3800000000001 497.21000000000004 454.91000000000014 501.40000000000003 452.3000000000001 505.50000000000006 C 473.22000000000014 496.56000000000006 492.8200000000001 483.58000000000004 509.8800000000001 466.51000000000005 C 581.57 394.81 581.57 278.59 509.88 206.9 z" stroke-linecap="round" />
</g>
		<g transform="matrix(0.01 -1 1 0.01 -817.93 25.91)"  >
<ellipse style="stroke: none; stroke-width: 1; stroke-dasharray: none; stroke-linecap: butt; stroke-dashoffset: 0; stroke-linejoin: miter; stroke-miterlimit: 4; fill: rgb(0,161,228); fill-rule: nonzero; opacity: 1;" vector-effect="non-scaling-stroke"  cx="0" cy="0" rx="63.04" ry="63.04" />
</g>
		<g transform="matrix(0.71 -0.71 0.71 0.71 -1026.58 -154.34)"  >
<ellipse style="stroke: none; stroke-width: 1; stroke-dasharray: none; stroke-linecap: butt; stroke-dashoffset: 0; stroke-linejoin: miter; stroke-miterlimit: 4; fill: rgb(0,161,75); fill-rule: nonzero; opacity: 1;" vector-effect="non-scaling-stroke"  cx="0" cy="0" rx="63.04" ry="63.04" />
</g>
		<g transform="matrix(1 0 0 1 -1052.85 -83.62)"  >
<path style="stroke: none; stroke-width: 1; stroke-dasharray: none; stroke-linecap: butt; stroke-dashoffset: 0; stroke-linejoin: miter; stroke-miterlimit: 4; fill: rgb(0,161,75); fill-rule: nonzero; opacity: 1;" vector-effect="non-scaling-stroke"  transform=" translate(-230.39, -258.94)" d="M 316.34 106.59 C 218.41999999999996 80.35000000000001 117.75999999999996 138.46 91.51999999999998 236.39000000000001 C 73.41999999999999 303.95000000000005 95.47999999999998 372.78 143.04 417.6 C 147.01 405.38 153.57999999999998 394.15000000000003 162.44 384.59000000000003 C 149.2 350.56000000000006 146.26999999999998 312.16 156.44 274.18000000000006 C 160.68 258.37000000000006 166.95 243.65000000000006 174.84 230.18000000000006 C 173.52 226.47000000000006 172.42000000000002 222.66000000000005 171.58 218.75000000000006 C 166.57000000000002 195.32000000000005 170.98000000000002 171.35000000000005 184 151.24000000000007 C 197.02 131.13000000000005 217.09 117.30000000000007 240.52 112.29000000000006 C 263.95 107.27000000000007 287.92 111.69000000000007 308.03000000000003 124.71000000000006 C 315.39000000000004 129.48000000000008 321.91 135.20000000000007 327.46000000000004 141.68000000000006 C 342.97 137.34000000000006 359.1 134.90000000000006 375.56000000000006 134.52000000000007 C 358.15 122.07 338.25 112.46 316.34 106.59 z" stroke-linecap="round" />
</g>
		<g transform="matrix(0.71 -0.71 0.71 0.71 -1068 115.95)"  >
<ellipse style="stroke: none; stroke-width: 1; stroke-dasharray: none; stroke-linecap: butt; stroke-dashoffset: 0; stroke-linejoin: miter; stroke-miterlimit: 4; fill: rgb(255,230,0); fill-rule: nonzero; opacity: 1;" vector-effect="non-scaling-stroke"  cx="0" cy="0" rx="63.04" ry="63.04" />
</g>
		<g transform="matrix(1 0 0 1 -1011.57 144.08)"  >
<path style="stroke: none; stroke-width: 1; stroke-dasharray: none; stroke-linecap: butt; stroke-dashoffset: 0; stroke-linejoin: miter; stroke-miterlimit: 4; fill: rgb(255,230,0); fill-rule: nonzero; opacity: 1;" vector-effect="non-scaling-stroke"  transform=" translate(-271.67, -486.65)" d="M 448.63 455.51 C 447.08 455.51 445.54 455.46999999999997 443.99 455.39 C 443.53000000000003 455.37 443.07 455.32 442.61 455.28 C 441.53000000000003 455.21 440.44 455.13 439.36 455.02 C 438.85 454.96999999999997 438.35 454.89 437.84000000000003 454.83 C 436.81000000000006 454.71 435.79 454.58 434.76000000000005 454.41999999999996 C 434.25000000000006 454.34 433.75000000000006 454.23999999999995 433.24000000000007 454.15 C 432.2200000000001 453.96999999999997 431.2100000000001 453.79999999999995 430.20000000000005 453.59 C 429.71000000000004 453.48999999999995 429.22 453.35999999999996 428.73 453.25 C 427.71000000000004 453.02 426.70000000000005 452.79 425.69 452.52 C 425.21999999999997 452.39 424.75 452.25 424.27 452.12 C 423.25 451.83 422.24 451.54 421.24 451.22 C 420.78000000000003 451.07000000000005 420.33 450.91 419.87 450.76000000000005 C 418.86 450.4200000000001 417.86 450.08000000000004 416.87 449.70000000000005 C 416.42 449.53000000000003 415.97 449.35 415.52 449.1700000000001 C 414.39 448.7200000000001 413.26 448.2800000000001 412.15 447.7800000000001 C 389.53 474.61000000000007 358.78 495.06000000000006 322.30999999999995 504.8300000000001 C 311.38999999999993 507.7600000000001 300.42999999999995 509.5900000000001 289.54999999999995 510.4100000000001 C 273.00999999999993 530.2600000000001 248.13999999999996 542.8100000000001 220.66999999999996 542.8100000000001 C 219.13999999999996 542.8100000000001 217.59999999999997 542.7700000000001 216.04999999999995 542.69 C 192.11999999999995 541.47 170.10999999999996 531 154.05999999999995 513.22 C 138.00999999999993 495.44000000000005 129.83999999999995 472.47 131.05999999999995 448.55 C 131.24999999999994 444.83 131.68999999999994 441.16 132.31999999999994 437.54 C 132.29999999999993 437.52000000000004 132.28999999999994 437.5 132.27999999999994 437.48 L 127.81999999999995 433.28000000000003 C 113.24999999999994 419.55 101.12999999999995 403.93 91.60999999999996 387.03000000000003 C 89.83999999999996 407.68 91.54999999999995 428.98 97.21999999999996 450.16 C 123.45999999999995 548.08 224.10999999999996 606.2 322.03999999999996 579.96 C 327.83 578.4100000000001 340.12999999999994 574.2900000000001 340.7 574.08 C 395.82 553.6700000000001 436.12 508.80000000000007 452.4 455.40000000000003 C 451.15 455.46 449.89 455.51 448.63 455.51 z" stroke-linecap="round" />
</g>
</g>
</g>
</svg>